<mxfile host="app.diagrams.net" modified="2022-09-29T14:27:25.151Z" agent="5.0 (Macintosh; Intel Mac OS X 10_15_7) AppleWebKit/537.36 (KHTML, like Gecko) Chrome/105.0.0.0 Safari/537.36" etag="5_gZ2QUG6f2xywLcxTwu" version="20.3.2" type="github">
  <diagram id="ehC7Q29xsQyOZli-dUmP" name="Page-1">
    <mxGraphModel dx="1305" dy="625" grid="1" gridSize="10" guides="1" tooltips="1" connect="1" arrows="1" fold="1" page="1" pageScale="1" pageWidth="850" pageHeight="1100" math="0" shadow="0">
      <root>
        <mxCell id="0" />
        <mxCell id="1" parent="0" />
        <mxCell id="sOEeqQR-f4TSTjAUQe-p-2" value="" style="sketch=0;aspect=fixed;html=1;points=[];align=center;image;fontSize=12;image=img/lib/mscae/VirtualMachineWindows.svg;" vertex="1" parent="1">
          <mxGeometry x="107.63" y="450" width="50" height="46" as="geometry" />
        </mxCell>
        <mxCell id="sOEeqQR-f4TSTjAUQe-p-3" value="" style="aspect=fixed;perimeter=ellipsePerimeter;html=1;align=center;shadow=0;dashed=0;spacingTop=3;image;image=img/lib/active_directory/generic_server.svg;" vertex="1" parent="1">
          <mxGeometry x="115.25" y="200" width="68" height="121.43" as="geometry" />
        </mxCell>
        <mxCell id="sOEeqQR-f4TSTjAUQe-p-5" value="" style="shadow=0;dashed=0;html=1;strokeColor=none;fillColor=#4495D1;labelPosition=center;verticalLabelPosition=bottom;verticalAlign=top;align=center;outlineConnect=0;shape=mxgraph.veeam.dns;" vertex="1" parent="1">
          <mxGeometry x="440" y="200" width="44.8" height="44.8" as="geometry" />
        </mxCell>
        <mxCell id="sOEeqQR-f4TSTjAUQe-p-6" value="" style="aspect=fixed;perimeter=ellipsePerimeter;html=1;align=center;shadow=0;dashed=0;spacingTop=3;image;image=img/lib/active_directory/generic_server.svg;" vertex="1" parent="1">
          <mxGeometry x="320" y="20" width="68" height="121.43" as="geometry" />
        </mxCell>
        <mxCell id="sOEeqQR-f4TSTjAUQe-p-7" value="" style="aspect=fixed;perimeter=ellipsePerimeter;html=1;align=center;shadow=0;dashed=0;spacingTop=3;image;image=img/lib/active_directory/generic_server.svg;" vertex="1" parent="1">
          <mxGeometry x="478" y="20" width="68" height="121.43" as="geometry" />
        </mxCell>
        <mxCell id="sOEeqQR-f4TSTjAUQe-p-8" value="" style="aspect=fixed;perimeter=ellipsePerimeter;html=1;align=center;shadow=0;dashed=0;spacingTop=3;image;image=img/lib/active_directory/generic_server.svg;" vertex="1" parent="1">
          <mxGeometry x="740" y="200" width="68" height="121.43" as="geometry" />
        </mxCell>
        <mxCell id="sOEeqQR-f4TSTjAUQe-p-9" value="DNS &lt;br&gt;Resolver" style="text;html=1;align=center;verticalAlign=middle;resizable=0;points=[];autosize=1;strokeColor=none;fillColor=none;" vertex="1" parent="1">
          <mxGeometry x="36.75" y="220" width="70" height="40" as="geometry" />
        </mxCell>
        <mxCell id="sOEeqQR-f4TSTjAUQe-p-10" value=".COM" style="text;html=1;align=center;verticalAlign=middle;resizable=0;points=[];autosize=1;strokeColor=none;fillColor=none;" vertex="1" parent="1">
          <mxGeometry x="478" y="141.43" width="50" height="30" as="geometry" />
        </mxCell>
        <mxCell id="sOEeqQR-f4TSTjAUQe-p-11" value="ROOT" style="text;html=1;align=center;verticalAlign=middle;resizable=0;points=[];autosize=1;strokeColor=none;fillColor=none;" vertex="1" parent="1">
          <mxGeometry x="310" y="145" width="60" height="30" as="geometry" />
        </mxCell>
        <mxCell id="sOEeqQR-f4TSTjAUQe-p-12" value="Website Domain&lt;br&gt;&lt;br&gt;ACME.com" style="text;html=1;align=center;verticalAlign=middle;resizable=0;points=[];autosize=1;strokeColor=none;fillColor=none;" vertex="1" parent="1">
          <mxGeometry x="719" y="140" width="110" height="60" as="geometry" />
        </mxCell>
        <mxCell id="sOEeqQR-f4TSTjAUQe-p-21" value="" style="html=1;shadow=0;dashed=0;align=center;verticalAlign=middle;shape=mxgraph.arrows2.arrow;dy=0.6;dx=40;notch=0;fillColor=#FF0000;" vertex="1" parent="1">
          <mxGeometry x="190" y="260" width="530" height="30" as="geometry" />
        </mxCell>
        <mxCell id="sOEeqQR-f4TSTjAUQe-p-23" value="" style="shape=flexArrow;endArrow=classic;html=1;rounded=0;width=14;endSize=8.15;entryX=-0.08;entryY=-0.114;entryDx=0;entryDy=0;entryPerimeter=0;fillColor=#FF0000;" edge="1" parent="1" target="sOEeqQR-f4TSTjAUQe-p-10">
          <mxGeometry width="50" height="50" relative="1" as="geometry">
            <mxPoint x="190" y="250" as="sourcePoint" />
            <mxPoint x="410" y="170" as="targetPoint" />
          </mxGeometry>
        </mxCell>
        <mxCell id="sOEeqQR-f4TSTjAUQe-p-25" value="" style="shape=flexArrow;endArrow=classic;html=1;rounded=0;width=14;endSize=8.15;entryX=-0.08;entryY=-0.114;entryDx=0;entryDy=0;entryPerimeter=0;exitX=0.967;exitY=-0.016;exitDx=0;exitDy=0;exitPerimeter=0;fillColor=#FF0000;" edge="1" parent="1" source="sOEeqQR-f4TSTjAUQe-p-3">
          <mxGeometry width="50" height="50" relative="1" as="geometry">
            <mxPoint x="36.75" y="200" as="sourcePoint" />
            <mxPoint x="320.75" y="88.0100000000001" as="targetPoint" />
          </mxGeometry>
        </mxCell>
        <mxCell id="sOEeqQR-f4TSTjAUQe-p-27" value="" style="shadow=0;dashed=0;html=1;strokeColor=none;fillColor=#4495D1;labelPosition=center;verticalLabelPosition=bottom;verticalAlign=top;align=center;outlineConnect=0;shape=mxgraph.veeam.dns;" vertex="1" parent="1">
          <mxGeometry x="420" y="30" width="44.8" height="44.8" as="geometry" />
        </mxCell>
        <mxCell id="sOEeqQR-f4TSTjAUQe-p-28" value="" style="shadow=0;dashed=0;html=1;strokeColor=none;fillColor=#4495D1;labelPosition=center;verticalLabelPosition=bottom;verticalAlign=top;align=center;outlineConnect=0;shape=mxgraph.veeam.storage_cluster;" vertex="1" parent="1">
          <mxGeometry x="740" y="420" width="55.6" height="56" as="geometry" />
        </mxCell>
        <mxCell id="sOEeqQR-f4TSTjAUQe-p-39" value="" style="shape=singleArrow;whiteSpace=wrap;html=1;arrowWidth=0.41039999999999965;arrowSize=0.24123909507614963;shadow=0;rotation=-90;fillColor=#FF0000;" vertex="1" parent="1">
          <mxGeometry x="62.5" y="367.5" width="135.26" height="25" as="geometry" />
        </mxCell>
        <mxCell id="sOEeqQR-f4TSTjAUQe-p-41" value="" style="shape=flexArrow;endArrow=classic;startArrow=classic;html=1;rounded=0;fillColor=#FF3333;" edge="1" parent="1">
          <mxGeometry width="100" height="100" relative="1" as="geometry">
            <mxPoint x="180" y="460" as="sourcePoint" />
            <mxPoint x="730" y="460" as="targetPoint" />
          </mxGeometry>
        </mxCell>
        <mxCell id="sOEeqQR-f4TSTjAUQe-p-55" value="WWW" style="text;html=1;align=center;verticalAlign=middle;resizable=0;points=[];autosize=1;strokeColor=none;fillColor=none;" vertex="1" parent="1">
          <mxGeometry x="730" y="505" width="60" height="30" as="geometry" />
        </mxCell>
        <mxCell id="sOEeqQR-f4TSTjAUQe-p-56" value="TTL 3600" style="text;html=1;align=center;verticalAlign=middle;resizable=0;points=[];autosize=1;strokeColor=none;fillColor=none;" vertex="1" parent="1">
          <mxGeometry x="725" y="555" width="70" height="30" as="geometry" />
        </mxCell>
      </root>
    </mxGraphModel>
  </diagram>
</mxfile>
